<mxfile host="Electron" modified="2024-04-14T19:28:00.797Z" agent="Mozilla/5.0 (Windows NT 10.0; Win64; x64) AppleWebKit/537.36 (KHTML, like Gecko) draw.io/24.1.0 Chrome/120.0.6099.109 Electron/28.1.0 Safari/537.36" etag="p63e-NtGpiWkuGsIh0vf" version="24.1.0" type="device">
  <diagram name="Page-1" id="wDeDednDPRC00DrZ2P4G">
    <mxGraphModel dx="880" dy="532" grid="1" gridSize="10" guides="1" tooltips="1" connect="1" arrows="1" fold="1" page="1" pageScale="1" pageWidth="850" pageHeight="1100" math="0" shadow="0">
      <root>
        <mxCell id="0" />
        <mxCell id="1" parent="0" />
        <mxCell id="N_hQYfEKpaLTj4rjRo4o-2" value="" style="html=1;whiteSpace=wrap;" parent="1" vertex="1">
          <mxGeometry x="180" y="15" width="500" height="1070" as="geometry" />
        </mxCell>
        <mxCell id="7GBkQQxrwCLTmGX7OFjr-2" value="" style="endArrow=none;html=1;rounded=0;entryX=0.5;entryY=0.5;entryDx=0;entryDy=0;entryPerimeter=0;exitX=0;exitY=0.5;exitDx=0;exitDy=0;" parent="1" source="7GBkQQxrwCLTmGX7OFjr-1" target="N_hQYfEKpaLTj4rjRo4o-3" edge="1">
          <mxGeometry width="50" height="50" relative="1" as="geometry">
            <mxPoint x="425" y="116" as="sourcePoint" />
            <mxPoint x="699" y="70" as="targetPoint" />
          </mxGeometry>
        </mxCell>
        <mxCell id="N_hQYfEKpaLTj4rjRo4o-3" value="Warehouse Coordinator" style="shape=umlActor;verticalLabelPosition=bottom;verticalAlign=top;html=1;" parent="1" vertex="1">
          <mxGeometry x="60" y="870" width="30" height="60" as="geometry" />
        </mxCell>
        <mxCell id="N_hQYfEKpaLTj4rjRo4o-4" value="Add item" style="ellipse;whiteSpace=wrap;html=1;" parent="1" vertex="1">
          <mxGeometry x="190" y="625" width="110" height="60" as="geometry" />
        </mxCell>
        <mxCell id="N_hQYfEKpaLTj4rjRo4o-7" value="Procurement Coordinator" style="shape=umlActor;verticalLabelPosition=bottom;verticalAlign=top;html=1;" parent="1" vertex="1">
          <mxGeometry x="760" y="345" width="30" height="60" as="geometry" />
        </mxCell>
        <mxCell id="N_hQYfEKpaLTj4rjRo4o-8" value="&lt;p&gt;&lt;span&gt;Executive director&lt;/span&gt;&lt;/p&gt;" style="shape=umlActor;verticalLabelPosition=bottom;verticalAlign=top;html=1;" parent="1" vertex="1">
          <mxGeometry x="750" y="475" width="30" height="60" as="geometry" />
        </mxCell>
        <mxCell id="N_hQYfEKpaLTj4rjRo4o-9" value="&lt;p&gt;&lt;span&gt;Donor&lt;/span&gt;&lt;/p&gt;" style="shape=umlActor;verticalLabelPosition=bottom;verticalAlign=top;html=1;" parent="1" vertex="1">
          <mxGeometry x="70" y="55" width="30" height="60" as="geometry" />
        </mxCell>
        <mxCell id="N_hQYfEKpaLTj4rjRo4o-10" value="&lt;div&gt;Employees&lt;/div&gt;" style="shape=umlActor;verticalLabelPosition=bottom;verticalAlign=top;html=1;" parent="1" vertex="1">
          <mxGeometry x="60" y="585" width="30" height="60" as="geometry" />
        </mxCell>
        <mxCell id="N_hQYfEKpaLTj4rjRo4o-11" value="&lt;p&gt;&lt;span&gt;Recipient&lt;/span&gt;&lt;/p&gt;" style="shape=umlActor;verticalLabelPosition=bottom;verticalAlign=top;html=1;" parent="1" vertex="1">
          <mxGeometry x="95" y="235" width="30" height="60" as="geometry" />
        </mxCell>
        <mxCell id="N_hQYfEKpaLTj4rjRo4o-12" value="&lt;p&gt;&lt;span&gt;Program &lt;/span&gt;Coordinator&lt;/p&gt;" style="shape=umlActor;verticalLabelPosition=bottom;verticalAlign=top;html=1;" parent="1" vertex="1">
          <mxGeometry x="725" y="870" width="30" height="60" as="geometry" />
        </mxCell>
        <mxCell id="N_hQYfEKpaLTj4rjRo4o-16" value="Remove supplier" style="ellipse;whiteSpace=wrap;html=1;" parent="1" vertex="1">
          <mxGeometry x="497.5" y="275" width="110" height="60" as="geometry" />
        </mxCell>
        <mxCell id="N_hQYfEKpaLTj4rjRo4o-17" value="Donate money" style="ellipse;whiteSpace=wrap;html=1;" parent="1" vertex="1">
          <mxGeometry x="230" y="40" width="140" height="70" as="geometry" />
        </mxCell>
        <mxCell id="N_hQYfEKpaLTj4rjRo4o-18" value="Add supplier" style="ellipse;whiteSpace=wrap;html=1;" parent="1" vertex="1">
          <mxGeometry x="535" y="215" width="125" height="60" as="geometry" />
        </mxCell>
        <mxCell id="N_hQYfEKpaLTj4rjRo4o-19" value="&lt;p&gt;&lt;span&gt;Add Distributor&lt;/span&gt;&lt;/p&gt;" style="ellipse;whiteSpace=wrap;html=1;" parent="1" vertex="1">
          <mxGeometry x="395" y="535" width="140" height="70" as="geometry" />
        </mxCell>
        <mxCell id="N_hQYfEKpaLTj4rjRo4o-20" value="Edit item" style="ellipse;whiteSpace=wrap;html=1;" parent="1" vertex="1">
          <mxGeometry x="210" y="935" width="108" height="60" as="geometry" />
        </mxCell>
        <mxCell id="N_hQYfEKpaLTj4rjRo4o-21" value="&lt;p&gt;&lt;span&gt;Remove Distributor&lt;/span&gt;&lt;/p&gt;" style="ellipse;whiteSpace=wrap;html=1;" parent="1" vertex="1">
          <mxGeometry x="375" y="615" width="125" height="70" as="geometry" />
        </mxCell>
        <mxCell id="N_hQYfEKpaLTj4rjRo4o-22" value="Remove item" style="ellipse;whiteSpace=wrap;html=1;" parent="1" vertex="1">
          <mxGeometry x="240" y="765" width="90" height="50" as="geometry" />
        </mxCell>
        <mxCell id="N_hQYfEKpaLTj4rjRo4o-23" value="&lt;p&gt;&lt;span&gt;View Total Month Donations&lt;/span&gt;&lt;/p&gt;" style="ellipse;whiteSpace=wrap;html=1;" parent="1" vertex="1">
          <mxGeometry x="485" y="475" width="140" height="70" as="geometry" />
        </mxCell>
        <mxCell id="N_hQYfEKpaLTj4rjRo4o-24" value="Request to volunteer" style="ellipse;whiteSpace=wrap;html=1;" parent="1" vertex="1">
          <mxGeometry x="210" y="130" width="140" height="70" as="geometry" />
        </mxCell>
        <mxCell id="N_hQYfEKpaLTj4rjRo4o-26" value="Request food" style="ellipse;whiteSpace=wrap;html=1;" parent="1" vertex="1">
          <mxGeometry x="240" y="310" width="140" height="70" as="geometry" />
        </mxCell>
        <mxCell id="N_hQYfEKpaLTj4rjRo4o-27" value="&lt;div&gt;View&amp;nbsp;&lt;/div&gt;&lt;div&gt;programs&lt;/div&gt;" style="ellipse;whiteSpace=wrap;html=1;" parent="1" vertex="1">
          <mxGeometry x="525" y="1005" width="140" height="70" as="geometry" />
        </mxCell>
        <mxCell id="N_hQYfEKpaLTj4rjRo4o-28" value="Add program" style="ellipse;whiteSpace=wrap;html=1;" parent="1" vertex="1">
          <mxGeometry x="427.5" y="855" width="115" height="65" as="geometry" />
        </mxCell>
        <mxCell id="N_hQYfEKpaLTj4rjRo4o-29" value="Edit program" style="ellipse;whiteSpace=wrap;html=1;" parent="1" vertex="1">
          <mxGeometry x="500" y="910" width="110" height="70" as="geometry" />
        </mxCell>
        <mxCell id="N_hQYfEKpaLTj4rjRo4o-34" value="" style="endArrow=none;html=1;rounded=0;entryX=0.5;entryY=0.5;entryDx=0;entryDy=0;entryPerimeter=0;exitX=0;exitY=1;exitDx=0;exitDy=0;" parent="1" source="N_hQYfEKpaLTj4rjRo4o-4" target="N_hQYfEKpaLTj4rjRo4o-3" edge="1">
          <mxGeometry width="50" height="50" relative="1" as="geometry">
            <mxPoint x="-145" y="865" as="sourcePoint" />
            <mxPoint x="-95" y="815" as="targetPoint" />
          </mxGeometry>
        </mxCell>
        <mxCell id="N_hQYfEKpaLTj4rjRo4o-35" value="" style="endArrow=none;html=1;rounded=0;entryX=0.5;entryY=0.5;entryDx=0;entryDy=0;entryPerimeter=0;exitX=0;exitY=1;exitDx=0;exitDy=0;" parent="1" source="N_hQYfEKpaLTj4rjRo4o-22" target="N_hQYfEKpaLTj4rjRo4o-3" edge="1">
          <mxGeometry width="50" height="50" relative="1" as="geometry">
            <mxPoint x="65" y="955" as="sourcePoint" />
            <mxPoint x="-120" y="895" as="targetPoint" />
          </mxGeometry>
        </mxCell>
        <mxCell id="N_hQYfEKpaLTj4rjRo4o-36" value="" style="endArrow=none;html=1;rounded=0;entryX=0.5;entryY=0.5;entryDx=0;entryDy=0;entryPerimeter=0;" parent="1" source="N_hQYfEKpaLTj4rjRo4o-20" target="N_hQYfEKpaLTj4rjRo4o-3" edge="1">
          <mxGeometry width="50" height="50" relative="1" as="geometry">
            <mxPoint x="-85" y="870" as="sourcePoint" />
            <mxPoint x="30" y="855" as="targetPoint" />
          </mxGeometry>
        </mxCell>
        <mxCell id="N_hQYfEKpaLTj4rjRo4o-38" value="" style="endArrow=none;html=1;rounded=0;entryX=0.5;entryY=0.5;entryDx=0;entryDy=0;entryPerimeter=0;exitX=1;exitY=0.5;exitDx=0;exitDy=0;" parent="1" source="N_hQYfEKpaLTj4rjRo4o-18" target="N_hQYfEKpaLTj4rjRo4o-7" edge="1">
          <mxGeometry width="50" height="50" relative="1" as="geometry">
            <mxPoint x="630" y="275" as="sourcePoint" />
            <mxPoint x="680" y="225" as="targetPoint" />
          </mxGeometry>
        </mxCell>
        <mxCell id="N_hQYfEKpaLTj4rjRo4o-41" value="" style="endArrow=none;html=1;rounded=0;entryX=0.5;entryY=0.5;entryDx=0;entryDy=0;entryPerimeter=0;exitX=1;exitY=0.5;exitDx=0;exitDy=0;" parent="1" source="N_hQYfEKpaLTj4rjRo4o-16" target="N_hQYfEKpaLTj4rjRo4o-7" edge="1">
          <mxGeometry width="50" height="50" relative="1" as="geometry">
            <mxPoint x="605" y="315" as="sourcePoint" />
            <mxPoint x="715" y="300" as="targetPoint" />
          </mxGeometry>
        </mxCell>
        <mxCell id="N_hQYfEKpaLTj4rjRo4o-43" value="" style="endArrow=none;html=1;rounded=0;entryX=0.5;entryY=0.5;entryDx=0;entryDy=0;entryPerimeter=0;exitX=1;exitY=0.5;exitDx=0;exitDy=0;" parent="1" source="N_hQYfEKpaLTj4rjRo4o-19" target="N_hQYfEKpaLTj4rjRo4o-8" edge="1">
          <mxGeometry width="50" height="50" relative="1" as="geometry">
            <mxPoint x="625" y="595" as="sourcePoint" />
            <mxPoint x="675" y="545" as="targetPoint" />
          </mxGeometry>
        </mxCell>
        <mxCell id="N_hQYfEKpaLTj4rjRo4o-44" value="" style="endArrow=none;html=1;rounded=0;entryX=0.5;entryY=0.5;entryDx=0;entryDy=0;entryPerimeter=0;exitX=1;exitY=0.5;exitDx=0;exitDy=0;" parent="1" source="N_hQYfEKpaLTj4rjRo4o-23" target="N_hQYfEKpaLTj4rjRo4o-8" edge="1">
          <mxGeometry width="50" height="50" relative="1" as="geometry">
            <mxPoint x="625" y="515" as="sourcePoint" />
            <mxPoint x="675" y="465" as="targetPoint" />
          </mxGeometry>
        </mxCell>
        <mxCell id="N_hQYfEKpaLTj4rjRo4o-45" value="" style="endArrow=none;html=1;rounded=0;entryX=0.5;entryY=0.5;entryDx=0;entryDy=0;entryPerimeter=0;exitX=1;exitY=0.5;exitDx=0;exitDy=0;" parent="1" source="N_hQYfEKpaLTj4rjRo4o-21" target="N_hQYfEKpaLTj4rjRo4o-8" edge="1">
          <mxGeometry width="50" height="50" relative="1" as="geometry">
            <mxPoint x="630" y="665" as="sourcePoint" />
            <mxPoint x="680" y="615" as="targetPoint" />
          </mxGeometry>
        </mxCell>
        <mxCell id="N_hQYfEKpaLTj4rjRo4o-46" value="" style="endArrow=none;html=1;rounded=0;exitX=0.5;exitY=0.5;exitDx=0;exitDy=0;exitPerimeter=0;entryX=0;entryY=0.5;entryDx=0;entryDy=0;" parent="1" source="N_hQYfEKpaLTj4rjRo4o-9" target="N_hQYfEKpaLTj4rjRo4o-17" edge="1">
          <mxGeometry width="50" height="50" relative="1" as="geometry">
            <mxPoint x="80" y="115" as="sourcePoint" />
            <mxPoint x="130" y="65" as="targetPoint" />
          </mxGeometry>
        </mxCell>
        <mxCell id="N_hQYfEKpaLTj4rjRo4o-47" value="" style="endArrow=none;html=1;rounded=0;entryX=0;entryY=0.5;entryDx=0;entryDy=0;exitX=0.5;exitY=0.5;exitDx=0;exitDy=0;exitPerimeter=0;" parent="1" source="N_hQYfEKpaLTj4rjRo4o-9" target="N_hQYfEKpaLTj4rjRo4o-24" edge="1">
          <mxGeometry width="50" height="50" relative="1" as="geometry">
            <mxPoint x="-20" y="265" as="sourcePoint" />
            <mxPoint x="30" y="215" as="targetPoint" />
          </mxGeometry>
        </mxCell>
        <mxCell id="N_hQYfEKpaLTj4rjRo4o-48" value="" style="endArrow=none;html=1;rounded=0;exitX=0.5;exitY=0.5;exitDx=0;exitDy=0;exitPerimeter=0;entryX=0;entryY=0.5;entryDx=0;entryDy=0;" parent="1" source="N_hQYfEKpaLTj4rjRo4o-11" target="N_hQYfEKpaLTj4rjRo4o-26" edge="1">
          <mxGeometry width="50" height="50" relative="1" as="geometry">
            <mxPoint x="125" y="345" as="sourcePoint" />
            <mxPoint x="175" y="295" as="targetPoint" />
          </mxGeometry>
        </mxCell>
        <mxCell id="N_hQYfEKpaLTj4rjRo4o-49" value="" style="endArrow=none;html=1;rounded=0;exitX=1;exitY=0.5;exitDx=0;exitDy=0;entryX=0.5;entryY=0.5;entryDx=0;entryDy=0;entryPerimeter=0;" parent="1" source="N_hQYfEKpaLTj4rjRo4o-28" target="N_hQYfEKpaLTj4rjRo4o-12" edge="1">
          <mxGeometry width="50" height="50" relative="1" as="geometry">
            <mxPoint x="675" y="860" as="sourcePoint" />
            <mxPoint x="725" y="810" as="targetPoint" />
          </mxGeometry>
        </mxCell>
        <mxCell id="N_hQYfEKpaLTj4rjRo4o-50" value="" style="endArrow=none;html=1;rounded=0;entryX=0.5;entryY=0.5;entryDx=0;entryDy=0;entryPerimeter=0;exitX=1;exitY=0.5;exitDx=0;exitDy=0;" parent="1" source="N_hQYfEKpaLTj4rjRo4o-29" target="N_hQYfEKpaLTj4rjRo4o-12" edge="1">
          <mxGeometry width="50" height="50" relative="1" as="geometry">
            <mxPoint x="635" y="920" as="sourcePoint" />
            <mxPoint x="685" y="870" as="targetPoint" />
          </mxGeometry>
        </mxCell>
        <mxCell id="N_hQYfEKpaLTj4rjRo4o-51" value="" style="endArrow=none;html=1;rounded=0;entryX=0.5;entryY=0.5;entryDx=0;entryDy=0;entryPerimeter=0;exitX=1;exitY=0.5;exitDx=0;exitDy=0;" parent="1" source="N_hQYfEKpaLTj4rjRo4o-27" target="N_hQYfEKpaLTj4rjRo4o-12" edge="1">
          <mxGeometry width="50" height="50" relative="1" as="geometry">
            <mxPoint x="635" y="995" as="sourcePoint" />
            <mxPoint x="685" y="945" as="targetPoint" />
          </mxGeometry>
        </mxCell>
        <mxCell id="N_hQYfEKpaLTj4rjRo4o-52" value="" style="endArrow=none;html=1;rounded=0;entryX=0.5;entryY=0.5;entryDx=0;entryDy=0;entryPerimeter=0;exitX=0;exitY=0.5;exitDx=0;exitDy=0;" parent="1" source="N_hQYfEKpaLTj4rjRo4o-4" target="N_hQYfEKpaLTj4rjRo4o-10" edge="1">
          <mxGeometry width="50" height="50" relative="1" as="geometry">
            <mxPoint x="640" y="1035" as="sourcePoint" />
            <mxPoint x="705" y="995" as="targetPoint" />
          </mxGeometry>
        </mxCell>
        <mxCell id="MFWpUts-aTMDz01QRqAh-1" value="&lt;p&gt;&lt;span&gt;Edit Distributor&lt;/span&gt;&lt;/p&gt;" style="ellipse;whiteSpace=wrap;html=1;" parent="1" vertex="1">
          <mxGeometry x="515" y="715" width="110" height="70" as="geometry" />
        </mxCell>
        <mxCell id="MFWpUts-aTMDz01QRqAh-2" value="" style="endArrow=none;html=1;rounded=0;entryX=0.5;entryY=0.5;entryDx=0;entryDy=0;entryPerimeter=0;exitX=1;exitY=0.5;exitDx=0;exitDy=0;" parent="1" source="MFWpUts-aTMDz01QRqAh-1" target="N_hQYfEKpaLTj4rjRo4o-8" edge="1">
          <mxGeometry width="50" height="50" relative="1" as="geometry">
            <mxPoint x="640" y="750" as="sourcePoint" />
            <mxPoint x="755" y="590" as="targetPoint" />
          </mxGeometry>
        </mxCell>
        <mxCell id="MFWpUts-aTMDz01QRqAh-3" value="&lt;div&gt;Edit&amp;nbsp;&lt;/div&gt;&lt;div&gt;supplier&lt;/div&gt;" style="ellipse;whiteSpace=wrap;html=1;" parent="1" vertex="1">
          <mxGeometry x="575" y="385" width="90" height="60" as="geometry" />
        </mxCell>
        <mxCell id="MFWpUts-aTMDz01QRqAh-4" value="" style="endArrow=none;html=1;rounded=0;entryX=0.5;entryY=0.5;entryDx=0;entryDy=0;entryPerimeter=0;exitX=1;exitY=0.5;exitDx=0;exitDy=0;" parent="1" source="MFWpUts-aTMDz01QRqAh-3" target="N_hQYfEKpaLTj4rjRo4o-7" edge="1">
          <mxGeometry width="50" height="50" relative="1" as="geometry">
            <mxPoint x="605" y="430" as="sourcePoint" />
            <mxPoint x="741" y="365" as="targetPoint" />
          </mxGeometry>
        </mxCell>
        <mxCell id="gtPpWV_3Q25GlFcvVQlY-2" value="&lt;div&gt;View Suppliers&lt;/div&gt;" style="ellipse;whiteSpace=wrap;html=1;" parent="1" vertex="1">
          <mxGeometry x="460" y="345" width="120" height="70" as="geometry" />
        </mxCell>
        <mxCell id="gtPpWV_3Q25GlFcvVQlY-3" value="" style="endArrow=none;html=1;rounded=0;entryX=0.5;entryY=0.5;entryDx=0;entryDy=0;entryPerimeter=0;exitX=1;exitY=0.5;exitDx=0;exitDy=0;" parent="1" source="gtPpWV_3Q25GlFcvVQlY-2" target="N_hQYfEKpaLTj4rjRo4o-7" edge="1">
          <mxGeometry width="50" height="50" relative="1" as="geometry">
            <mxPoint x="605" y="415" as="sourcePoint" />
            <mxPoint x="755" y="335" as="targetPoint" />
          </mxGeometry>
        </mxCell>
        <mxCell id="gtPpWV_3Q25GlFcvVQlY-4" value="&lt;div&gt;Remove&lt;/div&gt;&lt;div&gt;program&lt;/div&gt;" style="ellipse;whiteSpace=wrap;html=1;" parent="1" vertex="1">
          <mxGeometry x="400" y="995" width="105" height="70" as="geometry" />
        </mxCell>
        <mxCell id="gtPpWV_3Q25GlFcvVQlY-5" value="" style="endArrow=none;html=1;rounded=0;entryX=0.5;entryY=0.5;entryDx=0;entryDy=0;entryPerimeter=0;exitX=1;exitY=0.5;exitDx=0;exitDy=0;" parent="1" source="gtPpWV_3Q25GlFcvVQlY-4" target="N_hQYfEKpaLTj4rjRo4o-12" edge="1">
          <mxGeometry width="50" height="50" relative="1" as="geometry">
            <mxPoint x="445" y="905" as="sourcePoint" />
            <mxPoint x="695" y="915" as="targetPoint" />
          </mxGeometry>
        </mxCell>
        <mxCell id="gtPpWV_3Q25GlFcvVQlY-6" value="&lt;p&gt;&lt;span&gt;View&amp;nbsp;&lt;/span&gt;&lt;/p&gt;&lt;p&gt;&lt;span&gt;Distributors&lt;/span&gt;&lt;/p&gt;" style="ellipse;whiteSpace=wrap;html=1;" parent="1" vertex="1">
          <mxGeometry x="380" y="695" width="115" height="70" as="geometry" />
        </mxCell>
        <mxCell id="gtPpWV_3Q25GlFcvVQlY-7" value="" style="endArrow=none;html=1;rounded=0;entryX=0.5;entryY=0.5;entryDx=0;entryDy=0;entryPerimeter=0;exitX=1;exitY=0.5;exitDx=0;exitDy=0;" parent="1" source="gtPpWV_3Q25GlFcvVQlY-6" target="N_hQYfEKpaLTj4rjRo4o-8" edge="1">
          <mxGeometry width="50" height="50" relative="1" as="geometry">
            <mxPoint x="460" y="695" as="sourcePoint" />
            <mxPoint x="725" y="550" as="targetPoint" />
          </mxGeometry>
        </mxCell>
        <mxCell id="7GBkQQxrwCLTmGX7OFjr-1" value="View items" style="ellipse;whiteSpace=wrap;html=1;" parent="1" vertex="1">
          <mxGeometry x="345" y="785" width="140" height="70" as="geometry" />
        </mxCell>
        <mxCell id="7GBkQQxrwCLTmGX7OFjr-6" value="&lt;div&gt;External payment system&lt;/div&gt;" style="shape=umlActor;verticalLabelPosition=bottom;verticalAlign=top;html=1;" parent="1" vertex="1">
          <mxGeometry x="740" y="50" width="30" height="60" as="geometry" />
        </mxCell>
        <mxCell id="7GBkQQxrwCLTmGX7OFjr-8" value="" style="endArrow=none;html=1;rounded=0;exitX=1;exitY=0.5;exitDx=0;exitDy=0;entryX=0.5;entryY=0.5;entryDx=0;entryDy=0;entryPerimeter=0;" parent="1" source="N_hQYfEKpaLTj4rjRo4o-17" target="7GBkQQxrwCLTmGX7OFjr-6" edge="1">
          <mxGeometry width="50" height="50" relative="1" as="geometry">
            <mxPoint x="400" y="65" as="sourcePoint" />
            <mxPoint x="545" y="55" as="targetPoint" />
          </mxGeometry>
        </mxCell>
        <mxCell id="7GBkQQxrwCLTmGX7OFjr-9" value="&lt;div&gt;Send confirmation email&lt;/div&gt;" style="ellipse;whiteSpace=wrap;html=1;" parent="1" vertex="1">
          <mxGeometry x="400" y="110" width="140" height="70" as="geometry" />
        </mxCell>
        <mxCell id="7GBkQQxrwCLTmGX7OFjr-16" value="" style="endArrow=open;endFill=1;endSize=12;html=1;rounded=0;exitX=1;exitY=1;exitDx=0;exitDy=0;" parent="1" source="N_hQYfEKpaLTj4rjRo4o-17" target="7GBkQQxrwCLTmGX7OFjr-9" edge="1">
          <mxGeometry width="160" relative="1" as="geometry">
            <mxPoint x="370" y="140" as="sourcePoint" />
            <mxPoint x="530" y="140" as="targetPoint" />
          </mxGeometry>
        </mxCell>
        <mxCell id="7GBkQQxrwCLTmGX7OFjr-18" value="include" style="edgeLabel;html=1;align=center;verticalAlign=middle;resizable=0;points=[];" parent="7GBkQQxrwCLTmGX7OFjr-16" connectable="0" vertex="1">
          <mxGeometry x="0.0775" relative="1" as="geometry">
            <mxPoint as="offset" />
          </mxGeometry>
        </mxCell>
        <mxCell id="7GBkQQxrwCLTmGX7OFjr-19" value="&lt;div&gt;Send volunteer email&lt;/div&gt;" style="ellipse;whiteSpace=wrap;html=1;" parent="1" vertex="1">
          <mxGeometry x="285" y="565" width="110" height="60" as="geometry" />
        </mxCell>
        <mxCell id="7GBkQQxrwCLTmGX7OFjr-20" value="" style="endArrow=none;html=1;rounded=0;exitX=0.5;exitY=1;exitDx=0;exitDy=0;entryX=0.533;entryY=0.433;entryDx=0;entryDy=0;entryPerimeter=0;" parent="1" source="7GBkQQxrwCLTmGX7OFjr-19" target="N_hQYfEKpaLTj4rjRo4o-3" edge="1">
          <mxGeometry width="50" height="50" relative="1" as="geometry">
            <mxPoint x="637" y="960" as="sourcePoint" />
            <mxPoint x="80" y="900" as="targetPoint" />
          </mxGeometry>
        </mxCell>
        <mxCell id="7GBkQQxrwCLTmGX7OFjr-21" value="&lt;div&gt;Update Request status&lt;br&gt;&lt;/div&gt;" style="ellipse;whiteSpace=wrap;html=1;" parent="1" vertex="1">
          <mxGeometry x="310" y="430" width="110" height="60" as="geometry" />
        </mxCell>
        <mxCell id="7GBkQQxrwCLTmGX7OFjr-22" value="" style="endArrow=open;endFill=1;endSize=12;html=1;rounded=0;exitX=0.5;exitY=0;exitDx=0;exitDy=0;entryX=0.55;entryY=1.017;entryDx=0;entryDy=0;entryPerimeter=0;" parent="1" source="7GBkQQxrwCLTmGX7OFjr-19" target="7GBkQQxrwCLTmGX7OFjr-21" edge="1">
          <mxGeometry width="160" relative="1" as="geometry">
            <mxPoint x="285" y="493" as="sourcePoint" />
            <mxPoint x="350" y="517" as="targetPoint" />
          </mxGeometry>
        </mxCell>
        <mxCell id="7GBkQQxrwCLTmGX7OFjr-23" value="include" style="edgeLabel;html=1;align=center;verticalAlign=middle;resizable=0;points=[];" parent="7GBkQQxrwCLTmGX7OFjr-22" connectable="0" vertex="1">
          <mxGeometry x="0.0775" relative="1" as="geometry">
            <mxPoint as="offset" />
          </mxGeometry>
        </mxCell>
        <mxCell id="ZnbdzMS8uWBzNuJ4GVXA-1" value="&lt;span style=&quot;text-align: left;&quot;&gt;Calculate Total&lt;br&gt;Value Donated&lt;/span&gt;" style="ellipse;whiteSpace=wrap;html=1;fontColor=default;" parent="1" vertex="1">
          <mxGeometry x="215" y="210" width="140" height="70" as="geometry" />
        </mxCell>
        <mxCell id="ZnbdzMS8uWBzNuJ4GVXA-3" value="" style="endArrow=none;html=1;rounded=0;entryX=0;entryY=0.5;entryDx=0;entryDy=0;exitX=0.5;exitY=0.5;exitDx=0;exitDy=0;exitPerimeter=0;" parent="1" source="N_hQYfEKpaLTj4rjRo4o-9" target="ZnbdzMS8uWBzNuJ4GVXA-1" edge="1">
          <mxGeometry width="50" height="50" relative="1" as="geometry">
            <mxPoint x="95" y="95" as="sourcePoint" />
            <mxPoint x="220" y="175" as="targetPoint" />
          </mxGeometry>
        </mxCell>
        <mxCell id="Zy7vmm9JZsBZ1XzFzaxy-1" value="Request Time off" style="ellipse;whiteSpace=wrap;html=1;" vertex="1" parent="1">
          <mxGeometry x="190" y="500" width="110" height="60" as="geometry" />
        </mxCell>
        <mxCell id="Zy7vmm9JZsBZ1XzFzaxy-2" value="" style="endArrow=none;html=1;rounded=0;entryX=0.5;entryY=0.5;entryDx=0;entryDy=0;entryPerimeter=0;exitX=0;exitY=0.5;exitDx=0;exitDy=0;" edge="1" parent="1" source="Zy7vmm9JZsBZ1XzFzaxy-1" target="N_hQYfEKpaLTj4rjRo4o-10">
          <mxGeometry width="50" height="50" relative="1" as="geometry">
            <mxPoint x="200" y="665" as="sourcePoint" />
            <mxPoint x="85" y="625" as="targetPoint" />
          </mxGeometry>
        </mxCell>
      </root>
    </mxGraphModel>
  </diagram>
</mxfile>
